<svg xmlns="http://www.w3.org/2000/svg" viewBox="0 0 600 400" role="img" aria-label="A clear container holding stock, bond, and fund shapes side by side, distinct from a sealed cash-only container, illustrating a brokerage account as a different kind of account from a bank account">
  <defs>
    <pattern id="hatch29" width="6" height="6" patternTransform="rotate(45)" patternUnits="userSpaceOnUse">
      <line x1="0" y1="0" x2="0" y2="6" stroke="#1E2A20" stroke-width="1" opacity="0.3"/>
    </pattern>
    <filter id="grain29" x="0" y="0" width="100%" height="100%">
      <feTurbulence type="fractalNoise" baseFrequency="0.85" numOctaves="2" stitchTiles="stitch" result="n"/>
      <feColorMatrix in="n" type="matrix" values="0 0 0 0 0  0 0 0 0 0  0 0 0 0 0  0 0 0 0.05 0"/>
    </filter>
  </defs>

  <rect width="600" height="400" fill="#E3E7D9"/>
  <line x1="40" y1="340" x2="560" y2="340" stroke="#CAD0BC" stroke-width="2"/>

  <!-- left: bank account, sealed box with just coins -->
  <g>
    <rect x="100" y="180" width="130" height="150" rx="6" fill="#F1F2E9" stroke="#1E2A20" stroke-width="2.6"/>
    <rect x="94" y="168" width="142" height="20" rx="5" fill="#EEF0E6" stroke="#1E2A20" stroke-width="2.6"/>
    <g fill="#A9781F" opacity="0.9">
      <ellipse cx="135" cy="300" rx="20" ry="7"/>
      <ellipse cx="165" cy="292" rx="20" ry="7"/>
      <ellipse cx="145" cy="278" rx="20" ry="7"/>
      <ellipse cx="170" cy="268" rx="20" ry="7"/>
    </g>
  </g>
  <text x="165" y="358" text-anchor="middle" font-family="Georgia, serif" font-size="14" fill="#1E2A20" opacity="0.7">bank account</text>

  <!-- right: brokerage account, open container with varied shapes -->
  <g>
    <path d="M370,200 L370,330 Q370,340 380,340 L480,340 Q490,340 490,330 L490,200"
          fill="none" stroke="#1E2A20" stroke-width="2.6"/>
    <path d="M364,190 Q430,172 496,190" fill="none" stroke="#1E2A20" stroke-width="2.6" stroke-linecap="round"/>

    <!-- stock: certificate rectangle -->
    <rect x="388" y="296" width="30" height="30" rx="3" fill="#1B6E5C" stroke="#1E2A20" stroke-width="2"/>
    <!-- bond: small note -->
    <rect x="424" y="304" width="28" height="22" rx="3" fill="#A9781F" stroke="#1E2A20" stroke-width="2"/>
    <!-- fund: cluster of small circles -->
    <circle cx="396" cy="266" r="10" fill="#54604F" stroke="#1E2A20" stroke-width="1.8"/>
    <circle cx="414" cy="270" r="10" fill="#54604F" stroke="#1E2A20" stroke-width="1.8"/>
    <circle cx="405" cy="252" r="10" fill="#54604F" stroke="#1E2A20" stroke-width="1.8"/>
    <!-- a coin too, cash still allowed -->
    <circle cx="460" cy="272" r="13" fill="#79843B" stroke="#1E2A20" stroke-width="2"/>
  </g>
  <text x="430" y="368" text-anchor="middle" font-family="Georgia, serif" font-size="14" fill="#1E2A20" opacity="0.7">brokerage account</text>

  <ellipse cx="165" cy="336" rx="70" ry="9" fill="url(#hatch29)" opacity="0.3"/>
  <ellipse cx="430" cy="346" rx="70" ry="9" fill="url(#hatch29)" opacity="0.3"/>

  <rect width="600" height="400" filter="url(#grain29)" style="mix-blend-mode:multiply" opacity="0.5"/>
</svg>
