<svg xmlns="http://www.w3.org/2000/svg" viewBox="0 0 600 400" role="img" aria-label="A small cluster of coins rolling down a slope, gathering more coins and growing larger with each turn, illustrating how compound interest snowballs over time">
  <defs>
    <pattern id="hatch18" width="6" height="6" patternTransform="rotate(45)" patternUnits="userSpaceOnUse">
      <line x1="0" y1="0" x2="0" y2="6" stroke="#1E2A20" stroke-width="1" opacity="0.3"/>
    </pattern>
    <filter id="grain18" x="0" y="0" width="100%" height="100%">
      <feTurbulence type="fractalNoise" baseFrequency="0.85" numOctaves="2" stitchTiles="stitch" result="n"/>
      <feColorMatrix in="n" type="matrix" values="0 0 0 0 0  0 0 0 0 0  0 0 0 0 0  0 0 0 0.05 0"/>
    </filter>
  </defs>

  <rect width="600" height="400" fill="#E3E7D9"/>

  <path d="M0,120 C140,150 260,210 360,268 C440,314 520,336 600,336 L600,400 L0,400 Z"
        fill="#DCE2D0"/>
  <path d="M0,120 C140,150 260,210 360,268 C440,314 520,336 600,336"
        fill="none" stroke="#1E2A20" stroke-width="2.4" opacity="0.5"/>

  <path d="M56,150 C90,158 120,172 148,186" fill="none" stroke="#1E2A20" stroke-width="2" stroke-dasharray="1 7" stroke-linecap="round" opacity="0.45"/>
  <path d="M150,214 C186,224 216,240 244,254" fill="none" stroke="#1E2A20" stroke-width="2" stroke-dasharray="1 7" stroke-linecap="round" opacity="0.45"/>

  <g>
    <circle cx="90" cy="128" r="15" fill="#A9781F" stroke="#1E2A20" stroke-width="2.2"/>
    <circle cx="82" cy="122" r="4" fill="#F6F7F0" opacity="0.7"/>
  </g>

  <g>
    <circle cx="192" cy="196" r="26" fill="#A9781F" stroke="#1E2A20" stroke-width="2.4"/>
    <circle cx="180" cy="186" r="6.5" fill="#F6F7F0" opacity="0.65"/>
    <circle cx="205" cy="208" r="6" fill="#12503F" opacity="0.5"/>
  </g>

  <g>
    <circle cx="340" cy="270" r="46" fill="#A9781F" stroke="#1E2A20" stroke-width="2.8"/>
    <circle cx="320" cy="252" r="11" fill="#F6F7F0" opacity="0.6"/>
    <circle cx="362" cy="288" r="10" fill="#12503F" opacity="0.45"/>
    <circle cx="352" cy="250" r="8" fill="#1B6E5C" opacity="0.5"/>
  </g>

  <g>
    <circle cx="486" cy="322" r="78" fill="#A9781F" stroke="#1E2A20" stroke-width="3.2"/>
    <circle cx="452" cy="292" r="17" fill="#F6F7F0" opacity="0.55"/>
    <circle cx="524" cy="356" r="15" fill="#12503F" opacity="0.4"/>
    <circle cx="512" cy="284" r="13" fill="#1B6E5C" opacity="0.45"/>
    <circle cx="450" cy="352" r="12" fill="#54604F" opacity="0.4"/>
    <path d="M446,300 C462,296 478,300 490,310" fill="none" stroke="#1E2A20" stroke-width="2" stroke-linecap="round" opacity="0.35"/>
  </g>

  <ellipse cx="486" cy="366" rx="70" ry="10" fill="url(#hatch18)" opacity="0.35"/>

  <rect width="600" height="400" filter="url(#grain18)" style="mix-blend-mode:multiply" opacity="0.5"/>
</svg>
